<svg id="Layer_1" data-name="Layer 1" xmlns="http://www.w3.org/2000/svg" viewBox="0 0 270.25 369.3"><defs><style>.cls-1{fill:#ffcfbb;}.cls-2{fill:#f1c9ba;}.cls-3{fill:#ebb3a0;}.cls-4{fill:#de8eb8;}.cls-5{fill:#fca2d5;}.cls-6{fill:#fd81c0;}.cls-7{fill:#ff4ca3;}.cls-8{fill:#f0a193;}.cls-9{fill:#e8b9aa;}</style></defs><title>Mumu</title><path class="cls-1" d="M267,48.49c-60.38,6-96.25,58.19-100.83,65.08-47.19,71-9.73,158.59-3.06,174.19,5.75,13.44,54.92,127.42,125.3,123.76S390.56,289.25,397.62,267.13c10.54-33,30.92-96.78-5.34-153.56C363.71,68.84,316.43,54.22,300.4,50A117.48,117.48,0,0,0,267,48.49Z" transform="translate(-142.67 -42.31)"/><path class="cls-2" d="M350.24,390.83" transform="translate(-142.67 -42.31)"/><path class="cls-3" d="M241,91.59S253.55,77.25,259,60.19h0c-1.73,4.29-2,5.2-2,5.23s2.87-10.36,9.9-16.93a22.82,22.82,0,0,1,14.24-6.16c3.11-.21,11.35,1.5,19.19,7.7,10.12,8,14.1,19.23,15.47,23.86a114.83,114.83,0,0,0,47,47.73,58.29,58.29,0,0,1,24.81,30c6.44,17.24,4.06,33.67,1.92,46.34-3.09,18.32-8.91,31.23-16,47-3.18,7.06-8.44,16.86-19,36.46-10.18,19-12.19,22-19.69,36.46-8,15.39-12,23.09-16,32.81a255.23,255.23,0,0,0-12.4,37.92c-.52,2.22-3.06,12-11.24,15.6a16.27,16.27,0,0,1-4.07,1.17c-7.42,1.34-14.32-4.48-16.77-6.56-6.14-5.18-8.64-11.25-10.94-16.77-4.56-11-9.39-21.81-13.85-32.81-3.73-9.19-9.3-22.45-16.78-38.65q-11.65-21.51-23.33-43a227.42,227.42,0,0,1-23.34-46.75c-2.09-5.8-3.28-9.86-3.71-11.33-3.75-12.74-9.1-31.66-4.64-52a58.22,58.22,0,0,1,6.23-16.7A52.92,52.92,0,0,1,193.69,129c6.13-5.9,8-5.91,19.42-14.18C226.86,104.84,233.73,99.85,241,91.59Z" transform="translate(-142.67 -42.31)"/><path class="cls-2" d="M359,401" transform="translate(-142.67 -42.31)"/><path class="cls-2" d="M501.18,62.7" transform="translate(-142.67 -42.31)"/><path class="cls-2" d="M164.3,80.93" transform="translate(-142.67 -42.31)"/><path class="cls-2" d="M310.14,407.56" transform="translate(-142.67 -42.31)"/><path class="cls-2" d="M338.93,321.53" transform="translate(-142.67 -42.31)"/><path class="cls-4" d="M415.31,248.35" transform="translate(-142.67 -42.31)"/><path class="cls-4" d="M288.69,160.64" transform="translate(-142.67 -42.31)"/><path class="cls-5" d="M-196.19,109.34" transform="translate(-142.67 -42.31)"/><path class="cls-2" d="M386,96.24" transform="translate(-142.67 -42.31)"/><path class="cls-6" d="M252.64,245.49c-14.23-67.44-39-85.34-23.86-115.29,11-21.77,38.41-40.81,67.12-38.13,24.7,2.31,45.51,20.24,54.09,40,14.15,32.51-13.09,51.24-29.59,116.2-19.22,75.67-3.43,133.72-27.68,140.7-5.6,1.62-10.67-.26-12.4-.9C252.92,377.87,269,323,252.64,245.49Z" transform="translate(-142.67 -42.31)"/><path class="cls-7" d="M264,181c1.08-28.18,15.64-46.5,25.78-46.12,10,.36,22.71,19.08,22.61,46.12-9.83,126.28-18.54,144.69-23.52,144.72S275,307.36,264,181Z" transform="translate(-142.67 -42.31)"/><path class="cls-8" d="M378.88,234c.6.21,1.62,1.07,1.74,9.61a116.82,116.82,0,0,1-3.93,31.46,221.58,221.58,0,0,1-16.23,43.45c-18.46,37-47,67.89-52,64.75-2.62-1.62,6-22.54,23.21-64.37,2.22-5.38,11.2-27,25.65-54C373.47,234.81,377.46,233.52,378.88,234Z" transform="translate(-142.67 -42.31)"/><path class="cls-2" d="M391.81,253.24q-12.71,16.68-25.4,33.35" transform="translate(-142.67 -42.31)"/><path class="cls-9" d="M454.08,249.45" transform="translate(-142.67 -42.31)"/><path class="cls-9" d="M419.89,323.53" transform="translate(-142.67 -42.31)"/><path class="cls-8" d="M188.58,224.39c-4.43.9-4.37,18-4.35,19.56.11,12.36,4.12,21.47,7.56,31,7.57,21,13,30.92,19.24,41.62,19.74,33.56,46.93,63.8,50.44,61.41,1.14-.78-2.43-9.27-9.57-26.25,0,0-6-14.14-14.41-32-.08-.18-.51-1.08-.53-1.12-.92-1.94-2.93-6.19-5.64-11.86l-.21-.46c-1.91-4-5.52-11.52-9.08-18.85-4.45-9.16-9.31-18.94-13.05-26.65C194.48,230.92,191.55,223.79,188.58,224.39Z" transform="translate(-142.67 -42.31)"/><path class="cls-9" d="M212.8,358.48" transform="translate(-142.67 -42.31)"/><path class="cls-8" d="M259,60.19c-3.39-3.9-21,3.33-32.63,14.68-15.42,15-18.12,34.91-18.74,43.47A128.82,128.82,0,0,0,241,91.59C248.46,83.15,262.86,64.6,259,60.19Z" transform="translate(-142.67 -42.31)"/><path class="cls-8" d="M360.86,120.35c4.52-2.79-.53-22.92-11.95-37.51-13.79-17.62-36.6-26.64-39.57-22.48-3.17,4.44,12.49,25.42,22.81,36.74l.8.87C353.66,121.28,359.1,121.43,360.86,120.35Z" transform="translate(-142.67 -42.31)"/><path class="cls-9" d="M403.05,120.85" transform="translate(-142.67 -42.31)"/><path class="cls-7" d="M269.69,67c1-6.23,5.79-13.79,13.25-14.32,7.82-.56,13.69,7,15.4,13.25a19.52,19.52,0,0,1-1.8,14,24.42,24.42,0,0,1-23.63.36A18.81,18.81,0,0,1,269.69,67Z" transform="translate(-142.67 -42.31)"/><path class="cls-9" d="M167.25,391.45" transform="translate(-142.67 -42.31)"/><path class="cls-7" d="M288.4,108.74c-3.22.17-6.68,2.68-6.78,6.28s3,6.16,6,6.59c4.08.59,8.54-2.85,8.33-6.82C295.79,111.32,292.07,108.54,288.4,108.74Z" transform="translate(-142.67 -42.31)"/></svg>