<?xml version="1.0" encoding="utf-8"?>
<!-- Generator: Adobe Illustrator 23.0.4, SVG Export Plug-In . SVG Version: 6.00 Build 0)  -->
<svg version="1.1" id="Layer_1" xmlns="http://www.w3.org/2000/svg" xmlns:xlink="http://www.w3.org/1999/xlink" x="0px" y="0px"
	 viewBox="0 0 500 500" style="enable-background:new 0 0 500 500;" xml:space="preserve">
<style type="text/css">
	.st0{fill:#FFFFFF;}
</style>
<g>
	<g>
		<path class="st0" d="M406,78.5c-25.3,0-44.2,12.4-60.9,23.3l-3.4,2.2c-21.1,13.8-45,29.3-91.6,29.3c-46.7,0-70.6-15.6-91.7-29.4
			l-3.3-2.2c-16.7-10.9-35.6-23.2-60.9-23.2C42.2,78.5,0,120.7,0,172.6c0,28,12.3,54.3,33.9,72.3c1.3,1.1,2.7,1.9,4.2,2.6
			c3.2,9.6,9.8,17.5,18.7,22.6c6.2,3.5,13.3,5.4,20.4,5.4c10.1,0,19.8-3.7,27.4-10.5c2.4-2.2,4.1-5.2,4.8-8.4
			c1.2-6,0.9-12.3-0.6-18.2c-2.9-10.8-9.8-19.7-19.5-25.3c-6.2-3.5-13.3-5.4-20.4-5.4c-5,0-9.9,0.9-14.4,2.6
			C49.9,205,39,189.9,39,172.6c0-30.4,24.7-55.1,55-55.1c10.6,0,20.3,4.7,31.5,11.7c20.8,13.2,22.8,24.6,26.7,47.3
			c2.5,14.8,5.7,33.1,15.3,54.8c10.9,24.6,24.5,41.5,36.6,56.5c15.8,19.6,26.2,32.5,26.2,55.2V402c0,10.8,8.8,19.5,19.5,19.5
			s19.5-8.8,19.5-19.5v-58.8c0-22.8,10.5-35.7,26.3-55.3c12.1-14.9,25.8-31.9,36.6-56.4c9.6-21.7,12.8-40.1,15.3-54.8
			c3.9-22.7,5.9-34.1,26.6-47.3c11.3-7.1,21.1-11.8,31.7-11.8c30.3,0,55,24.7,55,55.1c0,14.3-5.4,27.7-15.3,38
			c-4.8-1.9-9.9-2.9-15.1-2.9c-7.1,0-14.2,1.9-20.4,5.4c-9.7,5.5-16.7,14.5-19.5,25.3c-1.6,5.9-1.8,12.2-0.6,18.2
			c0.6,3.2,2.3,6.2,4.8,8.4c7.5,6.8,17.2,10.5,27.4,10.5c7.1,0,14.1-1.9,20.4-5.4c8.8-5,15.3-12.8,18.6-22.3c1.8-0.7,3.5-1.6,5-2.9
			c21.5-17.9,33.9-44.3,33.9-72.3C500,120.7,457.8,78.5,406,78.5z"/>
	</g>
</g>
</svg>
