<?xml version="1.0" encoding="utf-8"?>
<!-- Generator: Adobe Illustrator 23.0.4, SVG Export Plug-In . SVG Version: 6.00 Build 0)  -->
<svg version="1.1" id="Capa_1" xmlns="http://www.w3.org/2000/svg" xmlns:xlink="http://www.w3.org/1999/xlink" x="0px" y="0px"
	 viewBox="0 0 383.4 383.4" style="enable-background:new 0 0 383.4 383.4;" xml:space="preserve">
<style type="text/css">
	.st0{fill:none;}
	.st1{fill:#FFFFFF;}
	.st2{fill:#B9171D;}
	.st3{fill:#F7F1E6;}
</style>
<g>
	<g id="Guides_For_Artboard_37_">
	</g>
	<g id="Artwork_36_">
	</g>
	<g id="Layer_2_36_">
		<g>
			<rect x="136.7" y="63.1" class="st0" width="111.5" height="37.3"/>
			<path class="st1" d="M136.7,63.1h111.5v37.3h33.5V46.4c0-9.3-7.5-16.8-16.8-16.8h-145c-9.3,0-16.8,7.5-16.8,16.8v54.1h33.5
				L136.7,63.1L136.7,63.1z"/>
			<path class="st1" d="M337.7,100.4h-56.1h-33.5H136.7h-33.5H45.6C20.4,100.4,0,120.9,0,146.1v162c0,25.2,20.4,45.6,45.6,45.6
				h292.1c25.2,0,45.6-20.4,45.6-45.6v-162C383.4,120.9,362.9,100.4,337.7,100.4z M193.4,305.6c-40.2,0-72.8-32.6-72.8-72.8
				s32.6-72.8,72.8-72.8c40.2,0,72.8,32.6,72.8,72.8S233.6,305.6,193.4,305.6z"/>
			<path class="st2" d="M193.4,159.9c-40.2,0-72.8,32.6-72.8,72.8s32.6,72.8,72.8,72.8c40.2,0,72.8-32.6,72.8-72.8
				S233.6,159.9,193.4,159.9z M235.6,236.3c0,6-4.8,10.8-10.8,10.8h-17.1v17.1c0,6-4.8,10.8-10.8,10.8h-7.2c-6,0-10.8-4.8-10.8-10.8
				v-17.1h-17.1c-6,0-10.8-4.8-10.8-10.8v-7.2c0-6,4.8-10.8,10.8-10.8H179v-17.1c0-6,4.8-10.8,10.8-10.8h7.2c6,0,10.8,4.8,10.8,10.8
				v17.1h17.1c6,0,10.8,4.8,10.8,10.8V236.3z"/>
			<path class="st3" d="M224.9,218.3h-17.1v-17.1c0-6-4.8-10.8-10.8-10.8h-7.2c-6,0-10.8,4.8-10.8,10.8v17.1h-17.1
				c-6,0-10.8,4.8-10.8,10.8v7.2c0,6,4.8,10.8,10.8,10.8H179v17.1c0,6,4.8,10.8,10.8,10.8h7.2c6,0,10.8-4.8,10.8-10.8v-17.1h17.1
				c6,0,10.8-4.8,10.8-10.8v-7.2C235.6,223.2,230.8,218.3,224.9,218.3z"/>
		</g>
	</g>
</g>
</svg>
